<svg width="120" height="120" viewBox="0 0 120 120" fill="none" xmlns="http://www.w3.org/2000/svg">
<circle cx="60" cy="60" r="60" fill="#C64124"/>
<g clip-path="url(#clip0)">
<path d="M60.25 18.75C47.8422 18.75 37.75 28.8422 37.75 41.25C37.75 43.3219 39.4281 45 41.5 45C43.5719 45 45.25 43.3219 45.25 41.25C45.25 32.9766 51.9813 26.25 60.25 26.25C62.3219 26.25 64 24.5719 64 22.5C64 20.4281 62.3219 18.75 60.25 18.75ZM41.5141 107.618C41.5141 108.356 41.732 109.076 42.1422 109.69L47.8867 118.324C48.5828 119.37 49.7547 119.998 51.0086 119.998H69.4891C70.7453 119.998 71.9172 119.37 72.6109 118.324L78.3555 109.69C78.7633 109.076 78.9812 108.354 78.9836 107.618L78.9953 97.4977H41.5047L41.5141 107.618ZM60.25 0C36.2781 0 19 19.4461 19 41.25C19 51.6492 22.8555 61.1367 29.2094 68.3859C33.1094 72.8367 39.2266 82.1672 41.4953 89.9859V90H52.7453V89.9719C52.743 88.8539 52.5766 87.743 52.2414 86.6742C50.9312 82.5 46.893 71.4938 37.6703 60.9703C32.8563 55.4789 30.2828 48.5133 30.2617 41.25C30.2148 23.9906 44.2469 11.25 60.25 11.25C76.7922 11.25 90.25 24.7078 90.25 41.25C90.25 48.5086 87.6156 55.5117 82.832 60.9703C73.6656 71.4258 69.6086 82.4086 68.2773 86.625C67.9338 87.7091 67.7583 88.8394 67.757 89.9766V90H79.007V89.9883C81.2758 82.1672 87.393 72.8367 91.293 68.3883C97.6445 61.1367 101.5 51.6492 101.5 41.25C101.5 18.4688 83.0312 0 60.25 0Z" fill="#0D0D0D"/>
</g>
<defs>
<clipPath id="clip0">
<rect width="82.5" height="120" fill="white" transform="translate(19)"/>
</clipPath>
</defs>
</svg>
