<svg width="120" height="120" viewBox="0 0 120 120" fill="none" xmlns="http://www.w3.org/2000/svg">
<circle cx="60" cy="60" r="60" fill="#C64124"/>
<path d="M82.25 56.1875V62.5312C82.25 64.0266 81.0266 65.25 79.5312 65.25H41.4688C39.9734 65.25 38.75 64.0266 38.75 62.5312V56.1875C38.75 54.6922 39.9734 53.4688 41.4688 53.4688H79.5312C81.0266 53.4688 82.25 54.6922 82.25 56.1875ZM79.5312 72.5H41.4688C39.9734 72.5 38.75 73.7234 38.75 75.2188V81.5625C38.75 83.0578 39.9734 84.2812 41.4688 84.2812H79.5312C81.0266 84.2812 82.25 83.0578 82.25 81.5625V75.2188C82.25 73.7234 81.0266 72.5 79.5312 72.5ZM104 29.8836V105.125C104 111.129 99.1289 116 93.125 116H27.875C21.8711 116 17 111.129 17 105.125V10.875C17 4.87109 21.8711 0 27.875 0H74.1164C76.9938 0 79.7578 1.15547 81.7969 3.19453L100.805 22.2031C102.845 24.2195 104 27.0062 104 29.8836ZM75 11.7586V29H92.2414L75 11.7586ZM93.125 105.125V39.875H69.5625C66.5492 39.875 64.125 37.4508 64.125 34.4375V10.875H27.875V105.125H93.125Z" fill="#0D0D0D"/>
</svg>
