<svg width="120" height="120" viewBox="0 0 120 120" fill="none" xmlns="http://www.w3.org/2000/svg">
<circle cx="60" cy="60" r="60" fill="#C64124"/>
<g clip-path="url(#clip0)">
<path d="M110.833 87.4583C116.562 81.8125 120 74.7292 120 67C120 50.3333 104.062 36.5625 83.2916 34.1042C76.7291 22.1042 61.3124 13.6667 43.3333 13.6667C19.3958 13.6667 -6.16886e-05 28.5833 -6.16886e-05 47C-6.16886e-05 54.7083 3.43744 61.7917 9.16661 67.4583C5.97911 73.8542 1.39577 78.8125 1.31244 78.8958C-6.1651e-05 80.2917 -0.375062 82.3333 0.395772 84.1042C1.14577 85.875 2.89577 87.0208 4.81244 87.0208C15.9583 87.0208 24.9583 82.8125 30.8958 78.9375C32.8124 79.375 34.7916 79.7083 36.8124 79.9583C43.3541 91.9167 58.7083 100.333 76.6666 100.333C80.9999 100.333 85.1666 99.8333 89.1249 98.9167C95.0624 102.771 104.042 107 115.208 107C117.125 107 118.854 105.854 119.625 104.083C120.375 102.313 120.021 100.271 118.708 98.875C118.625 98.8125 114.021 93.8542 110.833 87.4583ZM28.9999 68.2292L25.4374 70.5417C22.4999 72.4375 19.4999 73.9375 16.4583 75C17.0208 74.0208 17.5833 72.9792 18.1249 71.9167L21.3541 65.4375L16.1874 60.3333C13.3749 57.5417 9.99994 52.9792 9.99994 47C9.99994 34.3542 25.2708 23.6667 43.3333 23.6667C61.3958 23.6667 76.6666 34.3542 76.6666 47C76.6666 59.6458 61.3958 70.3333 43.3333 70.3333C39.8958 70.3333 36.4583 69.9375 33.1249 69.1667L28.9999 68.2292ZM103.812 80.3333L98.6666 85.4167L101.896 91.8958C102.437 92.9583 103 94 103.562 94.9792C100.521 93.9167 97.5208 92.4167 94.5833 90.5208L91.0208 88.2083L86.8749 89.1667C83.5416 89.9375 80.1041 90.3333 76.6666 90.3333C65.4166 90.3333 55.3749 86.1458 49.3124 79.9792C70.4166 77.7292 86.6666 63.8542 86.6666 47C86.6666 46.2917 86.5833 45.6042 86.5208 44.9167C99.9374 47.9375 110 56.75 110 67C110 72.9792 106.625 77.5417 103.812 80.3333Z" fill="#0D0D0D"/>
</g>
<defs>
<clipPath id="clip0">
<rect width="120" height="106.667" fill="white" transform="translate(0 7)"/>
</clipPath>
</defs>
</svg>
