<svg width="120" height="120" viewBox="0 0 120 120" fill="none" xmlns="http://www.w3.org/2000/svg">
<circle cx="60" cy="60" r="60" fill="#C64124"/>
<path d="M87.1172 55.7812L45.8672 30.7031C42.1641 28.6406 37.5 31.2891 37.5 35.625V84.375C37.5 88.6875 42.1406 91.3594 45.8672 89.2969L87.1172 65.625C90.9609 63.4922 90.9609 57.9375 87.1172 55.7812ZM118.125 60C118.125 27.8906 92.1094 1.875 60 1.875C27.8906 1.875 1.875 27.8906 1.875 60C1.875 92.1094 27.8906 118.125 60 118.125C92.1094 118.125 118.125 92.1094 118.125 60ZM13.125 60C13.125 34.1016 34.1016 13.125 60 13.125C85.8984 13.125 106.875 34.1016 106.875 60C106.875 85.8984 85.8984 106.875 60 106.875C34.1016 106.875 13.125 85.8984 13.125 60Z" fill="#0D0D0D"/>
</svg>
