<svg width="120" height="120" viewBox="0 0 120 120" fill="none" xmlns="http://www.w3.org/2000/svg">
<circle cx="60" cy="60" r="60" fill="#C64124"/>
<path d="M114.375 15H112.5V19.6875C112.5 21.2344 111.234 22.5 109.688 22.5H100.312C98.7656 22.5 97.5 21.2344 97.5 19.6875V15H22.5V19.6875C22.5 21.2344 21.2344 22.5 19.6875 22.5H10.3125C8.76562 22.5 7.5 21.2344 7.5 19.6875V15H5.625C2.50781 15 0 17.5078 0 20.625V99.375C0 102.492 2.50781 105 5.625 105H7.5V100.312C7.5 98.7656 8.76562 97.5 10.3125 97.5H19.6875C21.2344 97.5 22.5 98.7656 22.5 100.312V105H97.5V100.312C97.5 98.7656 98.7656 97.5 100.312 97.5H109.688C111.234 97.5 112.5 98.7656 112.5 100.312V105H114.375C117.492 105 120 102.492 120 99.375V20.625C120 17.5078 117.492 15 114.375 15ZM22.5 87.1875C22.5 88.7344 21.2344 90 19.6875 90H10.3125C8.76562 90 7.5 88.7344 7.5 87.1875V77.8125C7.5 76.2656 8.76562 75 10.3125 75H19.6875C21.2344 75 22.5 76.2656 22.5 77.8125V87.1875ZM22.5 64.6875C22.5 66.2344 21.2344 67.5 19.6875 67.5H10.3125C8.76562 67.5 7.5 66.2344 7.5 64.6875V55.3125C7.5 53.7656 8.76562 52.5 10.3125 52.5H19.6875C21.2344 52.5 22.5 53.7656 22.5 55.3125V64.6875ZM22.5 42.1875C22.5 43.7344 21.2344 45 19.6875 45H10.3125C8.76562 45 7.5 43.7344 7.5 42.1875V32.8125C7.5 31.2656 8.76562 30 10.3125 30H19.6875C21.2344 30 22.5 31.2656 22.5 32.8125V42.1875ZM86.25 90.9375C86.25 92.4844 84.9844 93.75 83.4375 93.75H36.5625C35.0156 93.75 33.75 92.4844 33.75 90.9375V68.4375C33.75 66.8906 35.0156 65.625 36.5625 65.625H83.4375C84.9844 65.625 86.25 66.8906 86.25 68.4375V90.9375ZM86.25 51.5625C86.25 53.1094 84.9844 54.375 83.4375 54.375H36.5625C35.0156 54.375 33.75 53.1094 33.75 51.5625V29.0625C33.75 27.5156 35.0156 26.25 36.5625 26.25H83.4375C84.9844 26.25 86.25 27.5156 86.25 29.0625V51.5625ZM112.5 87.1875C112.5 88.7344 111.234 90 109.688 90H100.312C98.7656 90 97.5 88.7344 97.5 87.1875V77.8125C97.5 76.2656 98.7656 75 100.312 75H109.688C111.234 75 112.5 76.2656 112.5 77.8125V87.1875ZM112.5 64.6875C112.5 66.2344 111.234 67.5 109.688 67.5H100.312C98.7656 67.5 97.5 66.2344 97.5 64.6875V55.3125C97.5 53.7656 98.7656 52.5 100.312 52.5H109.688C111.234 52.5 112.5 53.7656 112.5 55.3125V64.6875ZM112.5 42.1875C112.5 43.7344 111.234 45 109.688 45H100.312C98.7656 45 97.5 43.7344 97.5 42.1875V32.8125C97.5 31.2656 98.7656 30 100.312 30H109.688C111.234 30 112.5 31.2656 112.5 32.8125V42.1875Z" fill="#0D0D0D"/>
</svg>
