<svg width="120" height="120" viewBox="0 0 120 120" fill="none" xmlns="http://www.w3.org/2000/svg">
<circle cx="60" cy="60" r="60" fill="#C64124"/>
<g clip-path="url(#clip0)">
<path d="M47.8829 1.17203C24.586 5.71891 5.81257 24.4455 1.21882 47.672C-7.45306 91.5002 32.086 124.172 61.8751 119.555C71.5313 118.055 76.2657 106.758 71.836 98.0627C66.4219 87.422 74.1563 75.0002 86.1094 75.0002H104.789C113.18 75.0002 119.977 68.0627 120 59.6955C119.883 22.758 86.2735 -6.30453 47.8829 1.17203ZM22.5001 75.0002C18.3516 75.0002 15.0001 71.6486 15.0001 67.5002C15.0001 63.3517 18.3516 60.0002 22.5001 60.0002C26.6485 60.0002 30.0001 63.3517 30.0001 67.5002C30.0001 71.6486 26.6485 75.0002 22.5001 75.0002ZM30.0001 45.0002C25.8516 45.0002 22.5001 41.6486 22.5001 37.5002C22.5001 33.3517 25.8516 30.0002 30.0001 30.0002C34.1485 30.0002 37.5001 33.3517 37.5001 37.5002C37.5001 41.6486 34.1485 45.0002 30.0001 45.0002ZM60.0001 30.0002C55.8516 30.0002 52.5001 26.6486 52.5001 22.5002C52.5001 18.3517 55.8516 15.0002 60.0001 15.0002C64.1485 15.0002 67.5001 18.3517 67.5001 22.5002C67.5001 26.6486 64.1485 30.0002 60.0001 30.0002ZM90.0001 45.0002C85.8516 45.0002 82.5001 41.6486 82.5001 37.5002C82.5001 33.3517 85.8516 30.0002 90.0001 30.0002C94.1485 30.0002 97.5001 33.3517 97.5001 37.5002C97.5001 41.6486 94.1485 45.0002 90.0001 45.0002Z" fill="#0D0D0D"/>
</g>
<defs>
<clipPath id="clip0">
<rect width="120" height="120" fill="white"/>
</clipPath>
</defs>
</svg>
