<svg width="120" height="120" viewBox="0 0 120 120" fill="none" xmlns="http://www.w3.org/2000/svg">
<circle cx="60" cy="60" r="60" fill="#C64124"/>
<g clip-path="url(#clip0)">
<path d="M60.1259 24C-22.8616 24 -6.91846 96 30.4147 96C37.8959 96 44.9403 92.1206 49.4309 85.5263L54.2553 78.4406C57.1915 74.13 63.0622 74.13 65.9984 78.4406L70.8228 85.5263C75.3115 92.1206 82.3559 96 89.8372 96C125.436 96 144.33 24 60.1259 24ZM34.5003 69.8175C26.8015 69.8175 21.7953 65.0062 19.4853 62.1206C18.5047 60.8962 18.5047 59.1037 19.4853 57.8775C21.7953 54.99 26.7997 50.1806 34.5003 50.1806C42.2009 50.1806 47.2053 54.9919 49.5153 57.8775C50.4959 59.1019 50.4959 60.8944 49.5153 62.1206C47.2053 65.0081 42.199 69.8175 34.5003 69.8175ZM85.5003 69.8175C77.8015 69.8175 72.7953 65.0062 70.4853 62.1206C69.5047 60.8962 69.5047 59.1037 70.4853 57.8775C72.7953 54.99 77.7997 50.1806 85.5003 50.1806C93.2009 50.1806 98.2053 54.9919 100.515 57.8775C101.496 59.1019 101.496 60.8944 100.515 62.1206C98.2053 65.0081 93.199 69.8175 85.5003 69.8175Z" fill="#0D0D0D"/>
</g>
<defs>
<clipPath id="clip0">
<rect width="120" height="96" fill="white" transform="translate(0 12)"/>
</clipPath>
</defs>
</svg>
