<svg width="120" height="120" viewBox="0 0 120 120" fill="none" xmlns="http://www.w3.org/2000/svg">
<circle cx="60" cy="60" r="60" fill="#C64124"/>
<path d="M118.901 19.8492L108.75 9.69609C107.344 8.28984 105.436 7.5 103.446 7.5H67.4999V3.75C67.4999 1.67812 65.8218 0 63.7499 0H56.2499C54.178 0 52.4999 1.67812 52.4999 3.75V7.5H13.1249C10.0194 7.5 7.4999 10.0195 7.4999 13.125V31.875C7.4999 34.9805 10.0194 37.5 13.1249 37.5H103.446C105.436 37.5 107.341 36.7102 108.75 35.3039L118.901 25.1531C120.366 23.6859 120.366 21.3141 118.901 19.8492ZM52.4999 116.25C52.4999 118.322 54.178 120 56.2499 120H63.7499C65.8218 120 67.4999 118.322 67.4999 116.25V90H52.4999V116.25ZM106.875 52.5H67.4999V45H52.4999V52.5H16.5538C14.564 52.5 12.6585 53.2898 11.2499 54.6961L1.09912 64.8492C-0.365723 66.3141 -0.365723 68.6883 1.09912 70.1531L11.2499 80.3039C12.6562 81.7102 14.564 82.5 16.5538 82.5H106.875C109.98 82.5 112.5 79.9805 112.5 76.875V58.125C112.5 55.0195 109.98 52.5 106.875 52.5Z" fill="#0D0D0D"/>
</svg>
