<svg width="120" height="120" viewBox="0 0 120 120" fill="none" xmlns="http://www.w3.org/2000/svg">
<circle cx="60" cy="60" r="60" fill="#C64124"/>
<g clip-path="url(#clip0)">
<path d="M116.467 22.2113C109.194 19.1606 101.916 18 94.6406 18C71.5462 17.9981 48.4538 29.6887 25.3594 29.6887C19.5675 29.6887 13.7794 28.9538 7.9875 27.1163C7.33687 26.91 6.68437 26.8125 6.04688 26.8125C2.82 26.8125 0 29.31 0 32.7769V92.2631C0 94.6312 1.35563 96.8756 3.5325 97.7869C10.8056 100.839 18.0844 102 25.3594 102C48.4538 102 71.5481 90.3094 94.6425 90.3094C100.434 90.3094 106.222 91.0444 112.014 92.8819C112.665 93.0881 113.318 93.1856 113.955 93.1856C117.182 93.1856 120.002 90.6881 120.002 87.2213V27.7369C120 25.3669 118.644 23.1244 116.467 22.2113ZM60 78C51.7144 78 45 69.9394 45 60C45 50.0588 51.7163 42 60 42C68.2838 42 75 50.0588 75 60C75 69.9431 68.2819 78 60 78Z" fill="#0D0D0D"/>
</g>
<defs>
<clipPath id="clip0">
<rect width="120" height="96" fill="white" transform="translate(0 12)"/>
</clipPath>
</defs>
</svg>
