<svg width="120" height="120" viewBox="0 0 120 120" fill="none" xmlns="http://www.w3.org/2000/svg">
<circle cx="60" cy="60" r="60" fill="#C64124"/>
<path d="M36 60C47.6063 60 57 50.6063 57 39C57 27.3937 47.6063 18 36 18C24.3937 18 15 27.3937 15 39C15 50.6063 24.3937 60 36 60ZM50.4 66H48.8438C44.9437 67.875 40.6125 69 36 69C31.3875 69 27.075 67.875 23.1562 66H21.6C9.675 66 0 75.675 0 87.6V93C0 97.9688 4.03125 102 9 102H63C67.9688 102 72 97.9688 72 93V87.6C72 75.675 62.325 66 50.4 66ZM90 60C99.9375 60 108 51.9375 108 42C108 32.0625 99.9375 24 90 24C80.0625 24 72 32.0625 72 42C72 51.9375 80.0625 60 90 60ZM99 66H98.2875C95.6813 66.9 92.925 67.5 90 67.5C87.075 67.5 84.3187 66.9 81.7125 66H81C77.175 66 73.65 67.1062 70.5562 68.8875C75.1312 73.8187 78 80.3625 78 87.6V94.8C78 95.2125 77.9062 95.6062 77.8875 96H111C115.969 96 120 91.9688 120 87C120 75.3937 110.606 66 99 66Z" fill="#0D0D0D"/>
</svg>
