<svg width="24" height="24" viewBox="0 0 24 24" fill="none" xmlns="http://www.w3.org/2000/svg">
<circle cx="12" cy="12" r="12" fill="#1AB6EA"/>
<path d="M19.743 8.14582C19.6727 9.67863 18.6039 11.7775 16.5297 14.4423C14.3887 17.2267 12.5781 18.6189 11.0945 18.6189C10.177 18.6189 9.4 17.7716 8.76367 16.0771C7.52617 11.5349 6.99883 8.87355 5.97578 8.87355C5.85625 8.87355 5.44492 9.12316 4.73828 9.61535L4 8.6591C5.81406 7.06652 7.54727 5.29465 8.63359 5.19621C9.86055 5.07668 10.6129 5.91691 10.8977 7.70988C11.9066 14.0907 12.3531 15.054 14.1883 12.1642C14.8457 11.1236 15.2008 10.3325 15.25 9.78762C15.4187 8.17394 13.9914 8.28293 13.0246 8.69777C13.798 6.16301 15.2781 4.93254 17.4613 5.00285C19.0715 5.04504 19.8344 6.09621 19.743 8.14582Z" fill="white"/>
</svg>
